<svg width="132" height="44" viewBox="0 0 132 44" fill="none" xmlns="http://www.w3.org/2000/svg">
<path d="M4.54052 0.47921H1.93996C0.976797 0.47921 0.623779 0.798796 0.623779 1.78932V21.8525C0.623779 22.8426 0.976797 23.1622 1.93996 23.1622H14.1399C15.1035 23.1622 15.4565 22.8426 15.4565 21.8525V19.7119C15.4565 18.7535 15.1035 18.4022 14.1399 18.4022H5.8567V1.78932C5.8567 0.798796 5.50368 0.47921 4.54052 0.47921ZM17.1902 8.59415V15.0477C17.1902 20.3507 20.5935 23.6415 26.6614 23.6415C32.7616 23.6415 36.1645 20.3507 36.1645 15.0477V8.59415C36.1645 3.29074 32.7616 0 26.6614 0C20.5935 0 17.1902 3.29074 17.1902 8.59415ZM30.9312 8.49832V15.1435C30.9312 17.6354 29.3902 18.8814 26.6614 18.8814C23.9646 18.8814 22.4235 17.6354 22.4235 15.1435V8.49832C22.4235 6.00644 23.9646 4.76047 26.6614 4.76047C29.3902 4.76047 30.9312 6.00644 30.9312 8.49832ZM56.8407 10.3514H49.0709C48.0759 10.3514 47.7547 10.6707 47.7547 11.6611V13.6418C47.7547 14.6323 48.0759 14.9519 49.0709 14.9519H52.9558V16.102C52.9558 17.6992 51.3506 18.8814 48.6537 18.8814C45.8606 18.8814 44.4158 17.6034 44.4158 15.0794V8.56212C44.4158 6.03814 45.8606 4.76047 48.6537 4.76047C50.8046 4.76047 52.0889 5.52723 52.699 7.09239C53.0521 8.01911 53.4373 8.21077 54.3687 7.89118L56.8407 7.02859C57.7397 6.70901 57.9964 6.26183 57.6434 5.36721C56.3913 1.91691 53.4051 0 48.6537 0C42.5858 0 39.1825 3.29074 39.1825 8.59415V15.0477C39.1825 20.3507 42.5858 23.6415 48.6537 23.6415C54.7539 23.6415 58.1568 20.3507 58.1568 16.0378V11.6611C58.1568 10.6706 57.8038 10.3514 56.8407 10.3514ZM78.6404 10.3514H70.8706C69.8756 10.3514 69.5545 10.6707 69.5545 11.6611V13.6418C69.5545 14.6323 69.8756 14.9519 70.8706 14.9519H74.7555V16.102C74.7555 17.6992 73.1504 18.8814 70.4535 18.8814C67.6603 18.8814 66.2156 17.6034 66.2156 15.0794V8.56212C66.2156 6.03814 67.6603 4.76047 70.4535 4.76047C72.6043 4.76047 73.8887 5.52723 74.4988 7.09239C74.8518 8.01911 75.2371 8.21077 76.1684 7.89118L78.6404 7.02859C79.5395 6.70901 79.7962 6.26183 79.4432 5.36721C78.191 1.91691 75.2048 0 70.4535 0C64.3856 0 60.9823 3.29074 60.9823 8.59415V15.0477C60.9823 20.3507 64.3856 23.6415 70.4535 23.6415C76.5537 23.6415 79.9566 20.3507 79.9566 16.0378V11.6611C79.9566 10.6706 79.6036 10.3514 78.6404 10.3514ZM83.3922 1.75728V21.8842C83.3922 22.8427 83.713 23.1622 84.6761 23.1622H87.3412C88.3043 23.1622 88.6252 22.8427 88.6252 21.8842V1.75728C88.6252 0.798863 88.3043 0.479277 87.3412 0.479277H84.6761C83.713 0.479277 83.3922 0.798863 83.3922 1.75728ZM112.185 21.8842L104.518 1.50183C104.229 0.670934 103.811 0.479277 102.912 0.479277H100.445C99.5467 0.479277 99.1614 0.670934 98.8403 1.56563L91.1725 21.8842C90.8513 22.7468 91.0762 23.1622 92.0393 23.1622H94.2489C95.8545 23.1622 96.2719 22.9068 96.5928 21.9801L97.6204 18.9773H105.545L106.54 21.9801C106.829 22.9068 107.311 23.1622 108.916 23.1622H111.319C112.249 23.1622 112.507 22.7468 112.185 21.8842ZM102.527 9.80809L104.197 14.7602H99.0007L100.67 9.7764C101.441 7.50787 101.409 5.23975 101.409 5.23975H101.724C101.724 5.23975 101.789 7.50787 102.527 9.80809ZM113.507 7.15659C113.507 13.035 118.548 13.6739 122.401 14.121C124.776 14.3769 126.735 14.824 126.735 16.4213C126.735 18.2423 125.194 18.9452 122.465 18.9452C120.41 18.9452 118.965 18.1148 118.323 16.7409C117.906 15.7824 117.553 15.6228 116.622 15.9741L114.278 16.8046C113.379 17.1242 113.122 17.5397 113.443 18.466C114.695 21.8204 117.456 23.6415 122.465 23.6415C128.372 23.6415 132 20.7024 132 16.3254C132 10.7027 127.441 9.7443 123.685 9.29719C121.084 9.00963 118.869 8.65801 118.869 6.93283C118.869 5.39937 120.025 4.72844 122.657 4.72844C124.68 4.72844 125.772 5.4952 126.446 6.837C126.928 7.69959 127.281 7.85956 128.115 7.47617L130.555 6.42152C131.455 6.03814 131.711 5.59103 131.262 4.69634C129.785 1.56563 127.345 6.758e-05 122.658 6.758e-05C116.654 6.758e-05 113.507 3.03536 113.507 7.15659H113.507Z" fill="#414245"/>
<path fill-rule="evenodd" clip-rule="evenodd" d="M8.39358 27.2954H123.473C128.089 27.2954 131.866 31.0537 131.866 35.6477C131.866 40.2417 128.089 44 123.473 44H8.39358C3.77684 44 0 40.2417 0 35.6477C0 31.0537 3.77684 27.2954 8.39358 27.2954Z" fill="#F2A916"/>
<path d="M12.3254 32.16H8.56985C8.28624 32.16 8.19524 32.2532 8.19524 32.5415V34.5331C8.19524 36.4782 7.82932 37.0831 7.41823 37.3808H7.24458C6.96131 37.3808 6.8703 37.4835 6.8703 37.7623V39.8097C6.8703 40.0983 6.96131 40.1912 7.24458 40.1912H7.95706C8.23157 40.1912 8.32298 40.0983 8.32298 39.8097V38.7675H12.0517V39.8097C12.0517 40.0983 12.1427 40.1912 12.4168 40.1912H13.1297C13.413 40.1912 13.5044 40.0983 13.5044 39.8097V37.7623C13.5044 37.4835 13.4129 37.3808 13.1297 37.3808H12.691V32.5415C12.691 32.2533 12.5996 32.1601 12.3255 32.1601L12.3254 32.16ZM9.62972 33.5467H11.211V37.3808H9.13639C9.43786 36.8132 9.62972 35.9476 9.62972 34.5239V33.5467ZM18.357 32.16H14.6833C14.4091 32.16 14.3087 32.2532 14.3087 32.5415V38.386C14.3087 38.6743 14.4092 38.7675 14.6833 38.7675H18.4484C18.7225 38.7675 18.823 38.6743 18.823 38.386V37.7622C18.823 37.4834 18.7225 37.3808 18.4484 37.3808H15.7986V36.1152H17.9001C18.1834 36.1152 18.2747 36.022 18.2747 35.7337V35.1099C18.2747 34.8311 18.1833 34.7379 17.9001 34.7379H15.7986V33.5372H18.357C18.6403 33.5372 18.7316 33.4444 18.7316 33.1652V32.5414C18.7316 32.2531 18.6402 32.1599 18.357 32.1599L18.357 32.16ZM24.5254 32.16H20.8517C20.5684 32.16 20.4771 32.2532 20.4771 32.5415V34.5331C20.4771 36.8223 19.8924 37.2412 19.4354 37.4834C19.1795 37.6136 19.134 37.7438 19.2527 37.9951L19.6091 38.6558C19.7187 38.9165 19.8464 38.9629 20.1024 38.8418C21.0622 38.3671 21.9301 37.5763 21.9301 34.524V33.5467H23.4196V38.386C23.4196 38.6743 23.511 38.7675 23.7942 38.7675H24.5253C24.8086 38.7675 24.8999 38.6743 24.8999 38.386V32.5415C24.8999 32.2532 24.8085 32.16 24.5253 32.16H24.5254ZM31.6153 38.3951L29.4326 32.4578C29.3503 32.2159 29.232 32.1601 28.976 32.1601H28.2737C28.0177 32.1601 27.9082 32.2159 27.8168 32.4767L25.6345 38.3951C25.5427 38.6465 25.6068 38.7676 25.881 38.7676H26.51C26.9666 38.7676 27.0857 38.6932 27.177 38.423L27.4694 37.5483H29.7249L30.0085 38.423C30.0908 38.6932 30.2277 38.7676 30.6846 38.7676H31.3687C31.6338 38.7676 31.7066 38.6465 31.6152 38.3951L31.6153 38.3951ZM28.8661 34.8776L29.3413 36.3202H27.8624L28.3379 34.8682C28.557 34.2075 28.5479 33.5468 28.5479 33.5468H28.6375C28.6375 33.5468 28.6561 34.2075 28.8661 34.8777V34.8776ZM36.3962 32.1601H32.7226C32.4484 32.1601 32.3475 32.2533 32.3475 32.5415V38.3861C32.3475 38.6744 32.4484 38.7676 32.7226 38.7676H36.4877C36.7618 38.7676 36.8623 38.6744 36.8623 38.3861V37.7623C36.8623 37.4835 36.7618 37.3808 36.4877 37.3808H33.8378V36.1152H35.9394C36.2227 36.1152 36.314 36.0221 36.314 35.7338V35.11C36.314 34.8312 36.2226 34.738 35.9394 34.738H33.8378V33.5373H36.3963C36.6796 33.5373 36.7709 33.4444 36.7709 33.1652V32.5415C36.7709 32.2532 36.6795 32.16 36.3963 32.16L36.3962 32.1601ZM43.7618 32.1601H43.113C42.8297 32.1601 42.7566 32.2068 42.6197 32.4487L40.9379 35.5847L39.266 32.4392C39.1379 32.2159 39.0465 32.16 38.745 32.16H38.1508C37.8766 32.16 37.7762 32.2532 37.7762 32.5324V38.3951C37.7762 38.6743 37.8767 38.7675 38.1508 38.7675H38.7996C39.0738 38.7675 39.1651 38.6743 39.1651 38.3951V36.2922C39.1651 35.6684 39.1101 35.1379 38.8909 34.1889H38.9732C39.156 34.8681 39.357 35.4171 39.6493 35.9197L40.3072 37.1016C40.4172 37.3159 40.4991 37.3718 40.7277 37.3718H41.1479C41.3766 37.3718 41.4588 37.297 41.5593 37.1016L42.2081 35.9197C42.4823 35.4171 42.7379 34.8217 42.9301 34.1889H43.012C42.7841 35.1009 42.7106 35.7152 42.7106 36.2828V38.3951C42.7106 38.6743 42.802 38.7675 43.0761 38.7675H43.7617C44.0449 38.7675 44.1363 38.6743 44.1363 38.3951V32.5324C44.1363 32.2532 44.0449 32.16 43.7617 32.16L43.7618 32.1601ZM47.015 34.5241V36.4039C47.015 37.9488 47.9838 38.9072 49.7107 38.9072C51.447 38.9072 52.4159 37.9488 52.4159 36.4039V34.5241C52.4159 32.9793 51.447 32.0205 49.7107 32.0205C47.9838 32.0205 47.015 32.9793 47.015 34.5241ZM50.9264 34.4962V36.4319C50.9264 37.1575 50.4877 37.5204 49.7107 37.5204C48.9432 37.5204 48.5048 37.1575 48.5048 36.4319V34.4962C48.5048 33.7702 48.9432 33.4072 49.7107 33.4072C50.4877 33.4072 50.9264 33.7702 50.9264 34.4962ZM58.6021 38.3672L57.433 36.0968C57.1949 35.6406 56.9484 35.3244 56.6011 35.1195L58.4925 32.5326C58.6389 32.3371 58.5661 32.1601 58.3101 32.1601H57.5149C57.0765 32.1601 56.9756 32.2069 56.7838 32.4767L55.1661 34.7381H55.0842H54.9382V32.5416C54.9382 32.2533 54.8374 32.1601 54.5632 32.1601H53.823C53.5488 32.1601 53.448 32.2533 53.448 32.5416V38.3861C53.448 38.6744 53.5488 38.7676 53.823 38.7676H54.5632C54.8374 38.7676 54.9382 38.6744 54.9382 38.3861V36.0969H55.1756C55.6966 36.0969 55.8608 36.227 56.0618 36.6549L56.9207 38.4231C57.058 38.7117 57.2043 38.7676 57.6704 38.7676H58.4015C58.6844 38.7676 58.7212 38.5906 58.6021 38.3673V38.3672ZM64.2044 32.1601H63.4638C63.181 32.1601 63.0895 32.2533 63.0895 32.5416V34.7286H60.8872V32.5416C60.8872 32.2533 60.7866 32.1601 60.5125 32.1601H59.7724C59.4982 32.1601 59.3973 32.2533 59.3973 32.5416V38.3861C59.3973 38.6744 59.4982 38.7676 59.7724 38.7676H60.5125C60.7867 38.7676 60.8872 38.6744 60.8872 38.3861V36.1154H63.0895V38.3861C63.0895 38.6744 63.181 38.7676 63.4638 38.7676H64.2044C64.4786 38.7676 64.5699 38.6744 64.5699 38.3861V32.5416C64.5699 32.2533 64.4785 32.1601 64.2044 32.1601ZM71.2848 38.3952L69.1025 32.4579C69.0202 32.216 68.9016 32.1602 68.6456 32.1602H67.9433C67.6873 32.1602 67.5781 32.216 67.4864 32.4768L65.3041 38.3953C65.2127 38.6466 65.2768 38.7677 65.5506 38.7677H66.1796C66.6366 38.7677 66.7553 38.6934 66.8466 38.4232L67.1393 37.5485H69.3948L69.6781 38.4232C69.7604 38.6934 69.8977 38.7677 70.3542 38.7677H71.0383C71.3034 38.7677 71.3762 38.6466 71.2847 38.3953L71.2848 38.3952ZM68.536 34.8777L69.0108 36.3203H67.5319L68.0074 34.8683C68.227 34.2076 68.2175 33.5469 68.2175 33.5469H68.3073C68.3073 33.5469 68.3255 34.2077 68.536 34.8778V34.8777ZM78.7524 32.1602H77.9758C77.7839 32.1602 77.6929 32.216 77.6194 32.3372L75.9653 35.0079C75.5084 35.7619 75.3533 36.0969 75.0697 36.9063H75.0151C75.2437 36.0037 75.3078 35.7154 75.3078 34.6544V32.5418C75.3078 32.2535 75.2069 32.1603 74.9328 32.1603H74.1926C73.9184 32.1603 73.8179 32.2535 73.8179 32.5418V38.3863C73.8179 38.6746 73.9185 38.7678 74.1926 38.7678H74.9696C75.152 38.7678 75.2528 38.7213 75.326 38.5908L76.9979 35.8736C77.4643 35.1197 77.5921 34.8314 77.8753 34.0216H77.9303C77.7203 34.9336 77.638 35.194 77.638 36.2735V38.3862C77.638 38.6745 77.7385 38.7677 78.0126 38.7677H78.7524C79.0266 38.7677 79.1274 38.6745 79.1274 38.3862V32.5417C79.1274 32.2534 79.0266 32.1602 78.7524 32.1602ZM86.3739 32.1602H82.5084C82.2342 32.1602 82.1334 32.2534 82.1334 32.5417V38.4047C82.1334 38.6839 82.2433 38.7676 82.4993 38.7676H85.1036C86.3644 38.7676 87.1872 37.9673 87.1872 36.6829C87.1872 35.3803 86.3644 34.589 85.1036 34.589H83.6236V33.5095H86.3739C86.6481 33.5095 86.7485 33.4072 86.7485 33.128V32.5416C86.7485 32.2533 86.648 32.1601 86.3739 32.1601V32.1602ZM85.6519 36.6829C85.6519 37.1206 85.3777 37.4183 84.8935 37.4183H83.6236V35.9385H84.8935C85.3777 35.9385 85.6519 36.2366 85.6519 36.6829ZM93.427 38.3953L91.2443 32.458C91.162 32.2161 91.0437 32.1603 90.7877 32.1603H90.0854C89.8294 32.1603 89.7199 32.2161 89.6285 32.4769L87.4462 38.3953C87.3545 38.6467 87.4185 38.7678 87.6923 38.7678H88.3218C88.7784 38.7678 88.8975 38.6934 88.9888 38.4232L89.2812 37.5486H91.5367L91.8203 38.4232C91.9026 38.6934 92.0394 38.7678 92.4964 38.7678H93.1805C93.4455 38.7678 93.5183 38.6467 93.4269 38.3953L93.427 38.3953ZM90.6778 34.8778L91.153 36.3204H89.6741L90.1496 34.8684C90.3688 34.2077 90.3597 33.547 90.3597 33.547H90.4492C90.4492 33.547 90.4678 34.2077 90.6778 34.8779V34.8778ZM98.9394 32.1603H95.2654C94.9826 32.1603 94.8908 32.2535 94.8908 32.5418V34.5333C94.8908 36.8226 94.3061 37.2415 93.8496 37.4837C93.5932 37.6138 93.5477 37.7441 93.6664 37.9953L94.0228 38.6561C94.1324 38.9168 94.2602 38.9632 94.5161 38.8421C95.4759 38.3674 96.3442 37.5765 96.3442 34.5243V33.547H97.8337V38.3863C97.8337 38.6746 97.9247 38.7678 98.2084 38.7678H98.9394C99.2223 38.7678 99.3137 38.6746 99.3137 38.3863V32.5418C99.3137 32.2535 99.2223 32.1603 98.9394 32.1603ZM105.683 38.3674L104.514 36.0969C104.276 35.6408 104.029 35.3246 103.682 35.1197L105.574 32.5327C105.72 32.3373 105.647 32.1603 105.391 32.1603H104.596C104.158 32.1603 104.057 32.207 103.865 32.4769L102.247 34.7382H102.165H102.019V32.5418C102.019 32.2535 101.918 32.1603 101.644 32.1603H100.904C100.63 32.1603 100.529 32.2535 100.529 32.5418V38.3863C100.529 38.6746 100.63 38.7678 100.904 38.7678H101.644C101.918 38.7678 102.019 38.6746 102.019 38.3863V36.097H102.257C102.778 36.097 102.942 36.2272 103.143 36.6551L104.002 38.4232C104.139 38.7119 104.285 38.7678 104.751 38.7678H105.483C105.765 38.7678 105.802 38.5908 105.683 38.3674L105.683 38.3674ZM106.086 34.5242V36.4041C106.086 37.9489 107.054 38.9073 108.781 38.9073C110.518 38.9073 111.486 37.9489 111.486 36.4041V34.5242C111.486 32.9794 110.518 32.0206 108.781 32.0206C107.054 32.0206 106.086 32.9795 106.086 34.5242ZM109.997 34.4963V36.432C109.997 37.1576 109.558 37.5206 108.781 37.5206C108.014 37.5206 107.575 37.1576 107.575 36.432V34.4963C107.575 33.7703 108.014 33.4073 108.781 33.4073C109.558 33.4073 109.997 33.7703 109.997 34.4963ZM117.326 32.1603H116.585C116.302 32.1603 116.211 32.2535 116.211 32.5418V34.7288H114.009V32.5418C114.009 32.2535 113.908 32.1603 113.634 32.1603H112.894C112.619 32.1603 112.519 32.2535 112.519 32.5418V38.3863C112.519 38.6746 112.62 38.7678 112.894 38.7678H113.634C113.908 38.7678 114.009 38.6746 114.009 38.3863V36.1155H116.211V38.3863C116.211 38.6746 116.302 38.7678 116.585 38.7678H117.326C117.6 38.7678 117.691 38.6746 117.691 38.3863V32.5418C117.691 32.2535 117.6 32.1603 117.326 32.1603ZM119.281 38.7678H121.73C123.092 38.7678 123.969 37.9301 123.969 36.5343C123.969 35.1382 123.11 34.3099 121.73 34.3099H120.396V32.5418C120.396 32.2535 120.296 32.1603 120.021 32.1603H119.281C119.007 32.1603 118.906 32.2535 118.906 32.5418V38.3863C118.906 38.6746 119.007 38.7678 119.281 38.7678ZM124.783 32.5327V38.3953C124.783 38.6746 124.874 38.7678 125.148 38.7678H125.897C126.172 38.7678 126.263 38.6746 126.263 38.3953V32.5327C126.263 32.2535 126.172 32.1603 125.897 32.1603H125.148C124.874 32.1603 124.783 32.2535 124.783 32.5327ZM120.396 35.6967H121.575C122.105 35.6967 122.425 36.0038 122.425 36.5343C122.425 37.0648 122.114 37.3905 121.575 37.3905H120.396V35.6967Z" fill="#FEFEFE"/>
<path fill-rule="evenodd" clip-rule="evenodd" d="M22.4235 10.9691H26.0543V4.78273C26.2495 4.76766 26.4521 4.7605 26.6614 4.7605C26.8851 4.7605 27.1008 4.76881 27.3083 4.78577V10.9691H30.9311V12.217H27.3083V18.8562C27.1008 18.8732 26.8851 18.8815 26.6614 18.8815C26.4521 18.8815 26.2495 18.8743 26.0543 18.8592V12.2171H22.4235V10.9692V10.9691Z" fill="#414245"/>
</svg>
