<svg width="36" height="42" viewBox="0 0 36 42" fill="none" xmlns="http://www.w3.org/2000/svg">
<path fill-rule="evenodd" clip-rule="evenodd" d="M31.174 32.2577C34.3313 27.7962 36.0001 22.5586 36.0001 17.1116V4.96688C36.0001 4.3671 35.5791 3.84729 34.9879 3.71662L18.2812 0.0303662C18.0958 -0.0101221 17.9037 -0.0101221 17.7183 0.0303662L1.01228 3.71662C0.420601 3.84729 0.00012207 4.3671 0.00012207 4.96688V17.1116C0.00012207 22.5586 1.66884 27.7962 4.8262 32.2572C7.98338 36.7189 12.3859 40.0609 17.5581 41.9229C17.7006 41.9738 17.8508 41.9998 18 41.9998C18.1495 41.9998 18.2997 41.9738 18.4422 41.9229C23.6144 40.0615 28.017 36.7189 31.1743 32.2577H31.1742H31.174ZM17.9997 39.3517C13.5209 37.6423 9.70563 34.689 6.94569 30.7881C4.09476 26.7596 2.58766 22.0303 2.58766 17.1115V5.99334L18 2.5926L33.4126 5.99334V17.1115C33.4126 22.0298 31.9054 26.7592 29.0546 30.7881C26.2941 34.6889 22.4787 37.6423 18 39.3517H17.9998H17.9997Z" fill="#414245"/>
</svg>
